<svg width="38" height="52" viewBox="0 0 38 52" fill="none" xmlns="http://www.w3.org/2000/svg">
<path fill-rule="evenodd" clip-rule="evenodd" d="M6.10189 47.6672C4.27955 48.9422 0.491794 51.6694 0.0355604 51.9998C1.52666 51.9998 11.9491 51.9601 19.0884 51.9601C26.6841 51.9601 36.4249 52 37.2554 52C37.1974 51.9413 34.6221 50.0845 31.535 47.922L25.9219 43.9898L18.838 44.0087H11.3508L6.10189 47.6672Z" fill="#FFBF36"/>
<path fill-rule="evenodd" clip-rule="evenodd" d="M20.4709 2.97562C21.0369 4.60073 24.9499 15.7363 29.2263 27.6403C33.5382 39.6433 37.1016 49.8269 37.2498 50.2138C36.9202 49.9841 35.8729 49.2177 33.7376 47.742C31.6014 46.2219 28.9366 44.3704 27.8589 43.5726C27.8589 43.5726 26.4449 42.5959 25.931 42.2293C25.1478 40.0392 22.6601 33.0545 22.6601 33.0545L19.4206 22.9127V11.9551L19.4321 0.0791016L20.4709 2.97562Z" fill="#FFBF36"/>
<path fill-rule="evenodd" clip-rule="evenodd" d="M16.7789 2.97564C16.213 4.60075 12.3 15.7363 8.02358 27.6403C3.71159 39.6434 0.148186 49.827 0 50.2139C0.329636 49.9842 1.37696 49.2177 3.51222 47.742C5.64844 46.2219 8.31321 44.3704 9.39098 43.5727C9.39098 43.5727 10.8049 42.5959 11.3188 42.2293C12.102 40.0392 14.5898 33.0546 14.5898 33.0546L17.8293 22.9127V11.9551L17.8178 0.0791258L16.7789 2.97564Z" fill="#FFBF36"/>
</svg>
