<svg width="110" height="54" viewBox="0 0 110 54" fill="none" xmlns="http://www.w3.org/2000/svg">
<path fill-rule="evenodd" clip-rule="evenodd" d="M6.10189 48.5769C4.27955 49.8518 0.491794 52.579 0.0355604 52.9095C1.52666 52.9095 11.9491 52.8698 19.0884 52.8698C26.6841 52.8698 36.4249 52.9097 37.2554 52.9097C37.1974 52.851 34.6221 50.9942 31.535 48.8317L25.9219 44.8995L18.838 44.9184H11.3508L6.10189 48.5769Z" fill="#FFBF36"/>
<path fill-rule="evenodd" clip-rule="evenodd" d="M20.4709 3.88528C21.0369 5.51039 24.9499 16.6459 29.2263 28.5499C33.5382 40.553 37.1016 50.7366 37.2498 51.1235C36.9202 50.8938 35.8729 50.1273 33.7376 48.6516C31.6014 47.1315 28.9366 45.2801 27.8589 44.4823C27.8589 44.4823 26.4449 43.5056 25.931 43.139C25.1478 40.9489 22.6601 33.9642 22.6601 33.9642L19.4206 23.8223V12.8648L19.4321 0.98877L20.4709 3.88528Z" fill="#FFBF36"/>
<path fill-rule="evenodd" clip-rule="evenodd" d="M16.7789 3.88531C16.213 5.51042 12.3 16.646 8.02358 28.5499C3.71159 40.553 0.148186 50.7366 0 51.1236C0.329636 50.8938 1.37696 50.1274 3.51222 48.6517C5.64844 47.1316 8.31321 45.2801 9.39098 44.4823C9.39098 44.4823 10.8049 43.5056 11.3188 43.139C12.102 40.9489 14.5898 33.9642 14.5898 33.9642L17.8293 23.8224V12.8648L17.8178 0.988794L16.7789 3.88531Z" fill="#FFBF36"/>
<path d="M39.93 18.1197L37 1.14966H39.81L41.81 15.0397L43.92 1.14966H46.63L43.63 18.1497L39.93 18.1197Z" fill="#FFBF36"/>
<path d="M46.2197 18.1196L49.5297 1.11963H53.3797L56.6297 18.1196H53.6297L52.9397 14.6696H49.8397L49.1997 18.1196H46.2197ZM49.8397 13.2596H52.8397L51.3697 3.81963L49.8397 13.2596Z" fill="#FFBF36"/>
<path d="M58.5596 18.1197V1.14966H61.2596V16.2197H65.4796V18.1197H58.5596Z" fill="#FFBF36"/>
<path d="M67.1104 18.1197V1.14966H69.8104V16.2197H74.0004V18.1197H67.1104Z" fill="#FFBF36"/>
<path d="M88.8102 18.1197C87.956 18.1388 87.1065 17.9892 86.3102 17.6797C85.6106 17.3905 85.0462 16.8476 84.7302 16.1597C84.3384 15.1856 84.161 14.1385 84.2102 13.0897V12.0897H87.0002V13.2897C86.9716 13.9215 87.0494 14.5536 87.2302 15.1597C87.33 15.5288 87.5521 15.8531 87.8602 16.0797C88.1416 16.235 88.4587 16.3143 88.7802 16.3097C89.0269 16.3194 89.2728 16.2752 89.5008 16.1802C89.7288 16.0853 89.9333 15.9417 90.1002 15.7597C90.5012 15.1408 90.6777 14.4031 90.6002 13.6697C90.6564 13.0701 90.5529 12.4663 90.3002 11.9197C90.0389 11.5092 89.6587 11.1883 89.2102 10.9997C88.7302 10.7597 88.1102 10.4797 87.3402 10.1697C86.7536 9.9125 86.2052 9.57603 85.7102 9.1697C85.2304 8.78832 84.8582 8.28859 84.6302 7.7197C84.383 7.00994 84.2677 6.26094 84.2902 5.5097C84.2721 4.62633 84.4214 3.74753 84.7302 2.9197C84.9913 2.24555 85.5092 1.70251 86.1702 1.4097C87.0226 1.04772 87.9449 0.880329 88.8702 0.919699C90.0648 0.837565 91.2484 1.19302 92.2002 1.9197C92.5938 2.28415 92.9012 2.73174 93.1002 3.22992C93.2991 3.72811 93.3845 4.26436 93.3502 4.7997V6.7997H90.6302V5.5997C90.6821 4.93621 90.5285 4.27281 90.1902 3.6997C90.0422 3.49264 89.8423 3.32818 89.6105 3.22286C89.3788 3.11754 89.1235 3.07506 88.8702 3.0997C88.6116 3.07465 88.3508 3.11458 88.1116 3.21587C87.8723 3.31715 87.6622 3.47659 87.5002 3.6797C87.1879 4.20742 87.0448 4.81817 87.0902 5.4297C87.059 5.99251 87.2022 6.55123 87.5002 7.0297C87.756 7.39828 88.0997 7.69729 88.5002 7.8997C88.9402 8.10637 89.3902 8.29637 89.8502 8.4697C90.5795 8.73768 91.2824 9.07243 91.9502 9.4697C92.4691 9.80266 92.8766 10.2833 93.1202 10.8497C93.4105 11.629 93.5398 12.459 93.5002 13.2897C93.5498 14.2831 93.3396 15.2723 92.8902 16.1597C92.5297 16.8388 91.9422 17.3697 91.2302 17.6597C90.4619 17.9715 89.6393 18.1279 88.8102 18.1197Z" fill="#FFBF36"/>
<path d="M75.3096 18.1197V1.14966H82.9996V3.14966H78.1796V8.23966H82.1196V10.3897H78.1796V16.2197H82.9996V18.1197H75.3096Z" fill="#FFBF36"/>
<path d="M57.75 48.2797C57.75 51.5197 55.65 53.0897 51.45 53.0897H47V36.0897H50.8C54.5 36.0897 56.3 37.6597 56.3 40.6997C56.3299 41.3652 56.1539 42.0238 55.796 42.5857C55.4381 43.1475 54.9157 43.5854 54.3 43.8397C55.3163 44.0616 56.2305 44.6136 56.9 45.4097C57.4926 46.2462 57.7915 47.2554 57.75 48.2797ZM53.65 40.8197C53.65 39.1497 52.55 38.2697 50.35 38.2697H49.65V43.2697H50.75C51.5415 43.3173 52.3234 43.0756 52.95 42.5897C53.2045 42.3761 53.4018 42.1024 53.5241 41.7933C53.6463 41.4843 53.6896 41.1497 53.65 40.8197ZM55.05 48.1797C55.05 46.3197 53.75 45.4297 51.05 45.4297H49.65V50.9197H51.15C53.75 50.9197 55.05 49.9197 55.05 48.1797Z" fill="#FFBF36"/>
<path d="M83.6 38.4696H79.4V53.0896H76.7V38.4696H72.5V36.1096H83.5V38.4696H83.6Z" fill="#FFBF36"/>
<path d="M72.4904 44.6497C72.5807 46.8198 71.9476 48.9585 70.6904 50.7297C70.1664 51.4605 69.4759 52.056 68.6759 52.4668C67.876 52.8776 66.9896 53.0919 66.0904 53.0919C65.1911 53.0919 64.3048 52.8776 63.5049 52.4668C62.7049 52.056 62.0143 51.4605 61.4904 50.7297C60.2332 48.9585 59.6 46.8198 59.6904 44.6497C59.5986 42.4763 60.2318 40.334 61.4904 38.5597C62.0011 37.809 62.6866 37.1938 63.488 36.767C64.2894 36.3401 65.1825 36.1146 66.0904 36.1097C66.9917 36.0968 67.8824 36.3052 68.6844 36.7167C69.4864 37.1281 70.1752 37.7301 70.6904 38.4697C71.949 40.2779 72.5812 42.4484 72.4904 44.6497ZM69.8904 44.6497C69.9724 43.0803 69.6268 41.5181 68.8904 40.1297C68.6447 39.6225 68.2612 39.1947 67.7837 38.8954C67.3061 38.5961 66.754 38.4374 66.1904 38.4374C65.6268 38.4374 65.0746 38.5961 64.5971 38.8954C64.1196 39.1947 63.736 39.6225 63.4904 40.1297C62.754 41.5181 62.4084 43.0803 62.4904 44.6497C62.4092 46.2158 62.7548 47.7746 63.4904 49.1597C63.7177 49.6872 64.0945 50.1366 64.5744 50.4523C65.0542 50.768 65.616 50.9363 66.1904 50.9363C66.7648 50.9363 67.3266 50.768 67.8064 50.4523C68.2862 50.1366 68.6631 49.6872 68.8904 49.1597C69.5683 47.754 69.9107 46.2102 69.8904 44.6497Z" fill="#FFBF36"/>
</svg>
