<svg width="51" height="54" viewBox="0 0 51 54" fill="none" xmlns="http://www.w3.org/2000/svg">
<path d="M25.499 0C29.4275 0 32.6935 2.82733 33.3789 6.55762H43C47.4181 6.55764 50.9998 10.1396 51 14.5576V45.1855C51 49.6038 47.4183 53.1855 43 53.1855H8C3.58172 53.1855 0 49.6038 0 45.1855V14.5576C0.000229628 10.1395 3.58186 6.55762 8 6.55762H17.6191C18.3044 2.82738 21.5707 0.000158735 25.499 0ZM21.9961 22.8076C20.8004 21.661 18.789 21.5795 17.5039 22.625L11.252 27.7129C10.5205 28.3084 10.1841 29.1408 10.249 29.959C10.1836 30.7777 10.52 31.6112 11.252 32.207L17.5039 37.2949C18.7889 38.3404 20.8003 38.2587 21.9961 37.1123C23.1913 35.9657 23.1191 34.1884 21.835 33.1426L17.9258 29.96L21.835 26.7773C23.1191 25.7315 23.1914 23.9541 21.9961 22.8076ZM33.1543 22.624C31.8693 21.5788 29.8578 21.6602 28.6621 22.8066C27.4667 23.9531 27.5392 25.7305 28.8232 26.7764L32.7334 29.958L28.8242 33.1406C27.5394 34.1864 27.4667 35.9646 28.6621 37.1113C29.8579 38.258 31.8692 38.3396 33.1543 37.2939L39.4062 32.2061C40.1381 31.6103 40.4745 30.7775 40.4092 29.959C40.4743 29.1406 40.1379 28.3075 39.4062 27.7119L33.1543 22.624ZM25.499 4.37109C24.2922 4.37116 23.3139 5.34987 23.3135 6.55664C23.3135 7.76373 24.2919 8.74212 25.499 8.74219C26.7062 8.74219 27.6846 7.76378 27.6846 6.55664C27.6842 5.34983 26.7059 4.37109 25.499 4.37109Z" fill="white"/>
</svg>
