<svg width="60" height="48" viewBox="0 0 60 48" fill="none" xmlns="http://www.w3.org/2000/svg">
<path d="M54.0003 42.6667H59.3337V48H0.666992V42.6667H6.00033V2.66667C6.00033 1.95942 6.28128 1.28115 6.78137 0.781048C7.28147 0.280951 7.95975 0 8.66699 0H35.3337C36.0409 0 36.7192 0.280951 37.2193 0.781048C37.7194 1.28115 38.0003 1.95942 38.0003 2.66667V42.6667H43.3337V16H51.3337C52.0409 16 52.7192 16.281 53.2193 16.781C53.7194 17.2811 54.0003 17.9594 54.0003 18.6667V42.6667ZM16.667 21.3333V26.6667H27.3337V21.3333H16.667ZM16.667 10.6667V16H27.3337V10.6667H16.667Z" fill="#58AEFF"/>
</svg>
