<svg width="61" height="61" viewBox="0 0 61 61" fill="none" xmlns="http://www.w3.org/2000/svg">
<path d="M22.1723 12.579C15.8419 19.6852 11.4975 29.8946 11.0941 30.8566L4.08094 27.8465C2.06389 26.9776 1.56739 24.34 3.11897 22.7884L12.4595 13.4479C13.9179 11.9894 16.0281 11.3377 18.0762 11.7411L22.1723 12.579ZM26.796 44.1071C27.727 45.038 29.0924 45.2863 30.2716 44.7277C33.8712 43.052 41.5981 39.111 46.5942 34.1149C60.8377 19.8714 60.9618 8.26561 60.1239 3.30056C60.0137 2.69086 59.7199 2.12937 59.2818 1.69126C58.8436 1.25315 58.2822 0.959305 57.6725 0.849067C52.7074 0.0112145 41.1016 0.13534 26.8581 14.3788C21.862 19.3749 17.9521 27.1018 16.2453 30.7014C15.6867 31.8806 15.966 33.277 16.8659 34.177L26.796 44.1071ZM48.425 38.8317C41.3188 45.1621 31.1094 49.5065 30.1475 49.91L33.1575 56.9231C34.0264 58.9401 36.6641 59.4366 38.2157 57.8851L47.5562 48.5446C49.0146 47.0861 49.6663 44.9759 49.2629 42.9279L48.425 38.8317ZM21.3966 46.8999C21.6975 48.4028 21.6227 49.9567 21.1788 51.4237C20.7349 52.8908 19.9356 54.2255 18.852 55.3095C16.4625 57.6989 9.04599 59.4677 4.2361 60.3986C2.09493 60.802 0.202 58.9091 0.60541 56.7679C1.53636 51.958 3.27412 44.5415 5.69459 42.1521C6.77853 41.0684 8.11326 40.2692 9.58029 39.8253C11.0473 39.3814 12.6013 39.3066 14.1041 39.6075C17.7348 40.2902 20.7139 43.2692 21.3966 46.8999ZM33.9954 20.8024C33.9954 17.3889 36.7882 14.596 40.2017 14.596C43.6152 14.596 46.408 17.3889 46.408 20.8024C46.408 24.2158 43.6152 27.0087 40.2017 27.0087C36.7882 27.0087 33.9954 24.2158 33.9954 20.8024Z" fill="white"/>
</svg>
