<svg width="54" height="48" viewBox="0 0 54 48" fill="none" xmlns="http://www.w3.org/2000/svg">
<path d="M26.9997 48C26.2441 48 25.6112 47.744 25.101 47.232C24.5908 46.72 24.3348 46.0871 24.333 45.3333C24.3312 44.5796 24.5872 43.9467 25.101 43.4347C25.6148 42.9227 26.2477 42.6667 26.9997 42.6667H45.6663V23.7333C45.6663 18.5333 43.8557 14.1227 40.2343 10.5013C36.613 6.88 32.2015 5.06844 26.9997 5.06667C21.7979 5.06489 17.3872 6.87644 13.7677 10.5013C10.1481 14.1262 8.33656 18.5369 8.33301 23.7333V37.3333C8.33301 38.0889 8.07701 38.7227 7.56501 39.2347C7.05301 39.7467 6.42012 40.0018 5.66634 40C4.19967 40 2.94456 39.4782 1.90101 38.4347C0.857452 37.3911 0.334786 36.1351 0.333008 34.6667V29.3333C0.333008 28.4 0.566786 27.5227 1.03434 26.7013C1.5019 25.88 2.15701 25.224 2.99967 24.7333L3.19967 21.2C3.55523 18.1778 4.43345 15.3778 5.83434 12.8C7.23523 10.2222 8.99079 7.97778 11.101 6.06667C13.2112 4.15556 15.6326 2.66667 18.365 1.6C21.0975 0.533333 23.9757 0 26.9997 0C30.0237 0 32.8903 0.533333 35.5997 1.6C38.309 2.66667 40.7312 4.14489 42.8663 6.03467C45.0015 7.92444 46.757 10.1573 48.133 12.7333C49.509 15.3093 50.3979 18.1093 50.7997 21.1333L50.9997 24.6C51.8441 25 52.5001 25.6 52.9677 26.4C53.4352 27.2 53.6681 28.0444 53.6663 28.9333V35.0667C53.6663 35.9556 53.4335 36.8 52.9677 37.6C52.5019 38.4 51.8459 39 50.9997 39.4V42.6667C50.9997 44.1333 50.4779 45.3893 49.4343 46.4347C48.3908 47.48 47.1348 48.0018 45.6663 48H26.9997ZM18.9997 29.3333C18.2441 29.3333 17.6112 29.0773 17.101 28.5653C16.5908 28.0533 16.3348 27.4204 16.333 26.6667C16.3312 25.9129 16.5872 25.28 17.101 24.768C17.6148 24.256 18.2477 24 18.9997 24C19.7517 24 20.3855 24.256 20.901 24.768C21.4166 25.28 21.6717 25.9129 21.6663 26.6667C21.661 27.4204 21.405 28.0542 20.8983 28.568C20.3917 29.0818 19.7588 29.3369 18.9997 29.3333ZM34.9997 29.3333C34.2441 29.3333 33.6112 29.0773 33.101 28.5653C32.5908 28.0533 32.3348 27.4204 32.333 26.6667C32.3312 25.9129 32.5872 25.28 33.101 24.768C33.6148 24.256 34.2477 24 34.9997 24C35.7517 24 36.3855 24.256 36.901 24.768C37.4166 25.28 37.6717 25.9129 37.6663 26.6667C37.661 27.4204 37.405 28.0542 36.8983 28.568C36.3917 29.0818 35.7588 29.3369 34.9997 29.3333ZM11.0663 25.2C10.7552 20.4889 12.1775 16.4444 15.333 13.0667C18.4886 9.68889 22.4219 8 27.133 8C31.0886 8 34.5668 9.25511 37.5677 11.7653C40.5686 14.2756 42.3792 17.488 42.9997 21.4027C38.9552 21.3564 35.2335 20.2667 31.8343 18.1333C28.4352 16 25.8237 13.1111 23.9997 9.46667C23.2886 13.0222 21.789 16.1893 19.501 18.968C17.213 21.7467 14.4015 23.824 11.0663 25.2Z" fill="#58AEFF"/>
</svg>
