<svg width="63" height="63" viewBox="0 0 63 63" fill="none" xmlns="http://www.w3.org/2000/svg">
<path fill-rule="evenodd" clip-rule="evenodd" d="M24.2473 0.0518157V62.0746H43.642C52.4178 62.0746 56.8087 62.0746 59.5333 59.3469C62.261 56.6223 62.261 52.2314 62.261 43.4557V18.6304C62.261 9.85468 62.261 5.46372 59.5333 2.73915C56.8087 0.0114744 52.4178 0.0114746 43.642 0.0114746H25.0231L24.2473 0.0518157ZM30.4536 13.9757C30.4536 13.3584 30.6988 12.7664 31.1353 12.33C31.5718 11.8935 32.1637 11.6483 32.781 11.6483H48.2968C48.914 11.6483 49.506 11.8935 49.9425 12.33C50.3789 12.7664 50.6241 13.3584 50.6241 13.9757C50.6241 14.5929 50.3789 15.1849 49.9425 15.6214C49.506 16.0578 48.914 16.303 48.2968 16.303H32.781C32.1637 16.303 31.5718 16.0578 31.1353 15.6214C30.6988 15.1849 30.4536 14.5929 30.4536 13.9757ZM30.4536 24.8367C30.4536 24.2195 30.6988 23.6275 31.1353 23.191C31.5718 22.7546 32.1637 22.5094 32.781 22.5094H48.2968C48.914 22.5094 49.506 22.7546 49.9425 23.191C50.3789 23.6275 50.6241 24.2195 50.6241 24.8367C50.6241 25.454 50.3789 26.046 49.9425 26.4824C49.506 26.9189 48.914 27.1641 48.2968 27.1641H32.781C32.1637 27.1641 31.5718 26.9189 31.1353 26.4824C30.6988 26.046 30.4536 25.454 30.4536 24.8367ZM6.40416 16.303C6.42898 9.05407 6.65551 5.21236 9.13183 2.73915C11.2265 0.644518 14.3017 0.157323 19.5926 0.0456091V62.0405C14.3017 61.9287 11.2265 61.4415 9.13183 59.3469C6.65551 56.8737 6.42898 53.032 6.40726 45.783H9.50731C10.1246 45.783 10.7165 45.5378 11.153 45.1014C11.5895 44.6649 11.8347 44.0729 11.8347 43.4557C11.8347 42.8384 11.5895 42.2464 11.153 41.81C10.7165 41.3735 10.1246 41.1283 9.50731 41.1283H6.40416V33.3704H9.50731C10.1246 33.3704 10.7165 33.1252 11.153 32.6887C11.5895 32.2523 11.8347 31.6603 11.8347 31.043C11.8347 30.4258 11.5895 29.8338 11.153 29.3973C10.7165 28.9609 10.1246 28.7157 9.50731 28.7157H6.40416V20.9578H9.50731C10.1246 20.9578 10.7165 20.7126 11.153 20.2761C11.5895 19.8396 11.8347 19.2477 11.8347 18.6304C11.8347 18.0132 11.5895 17.4212 11.153 16.9847C10.7165 16.5482 10.1246 16.303 9.50731 16.303H6.40416ZM6.40416 16.303H3.301C2.68374 16.303 2.09177 16.5482 1.6553 16.9847C1.21884 17.4212 0.973633 18.0132 0.973633 18.6304C0.973633 19.2477 1.21884 19.8396 1.6553 20.2761C2.09177 20.7126 2.68374 20.9578 3.301 20.9578H6.40416V16.303ZM6.40416 33.3704H3.301C2.68374 33.3704 2.09177 33.1252 1.6553 32.6887C1.21884 32.2523 0.973633 31.6603 0.973633 31.043C0.973633 30.4258 1.21884 29.8338 1.6553 29.3973C2.09177 28.9609 2.68374 28.7157 3.301 28.7157H6.40416V33.3704ZM6.40416 41.1283H3.301C2.68374 41.1283 2.09177 41.3735 1.6553 41.81C1.21884 42.2464 0.973633 42.8384 0.973633 43.4557C0.973633 44.0729 1.21884 44.6649 1.6553 45.1014C2.09177 45.5378 2.68374 45.783 3.301 45.783H6.40726L6.40416 41.1283Z" fill="white"/>
</svg>
