<svg width="54" height="48" viewBox="0 0 54 48" fill="none" xmlns="http://www.w3.org/2000/svg">
<path d="M6.5833 6.50002H47.4166C49.0208 6.50002 50.3333 5.18752 50.3333 3.58335C50.3333 1.97919 49.0208 0.666687 47.4166 0.666687H6.5833C4.97914 0.666687 3.66664 1.97919 3.66664 3.58335C3.66664 5.18752 4.97914 6.50002 6.5833 6.50002ZM50.8 11.75C50.5375 10.4084 49.3416 9.41669 47.9416 9.41669H6.0583C4.6583 9.41669 3.46247 10.4084 3.19997 11.75L0.283304 26.3334C-0.0666962 28.1417 1.30414 29.8334 3.14164 29.8334H3.66664V44.4167C3.66664 46.0209 4.97914 47.3334 6.5833 47.3334H29.9166C31.5208 47.3334 32.8333 46.0209 32.8333 44.4167V29.8334H44.5V44.4167C44.5 46.0209 45.8125 47.3334 47.4166 47.3334C49.0208 47.3334 50.3333 46.0209 50.3333 44.4167V29.8334H50.8583C52.6958 29.8334 54.0666 28.1417 53.7166 26.3334L50.8 11.75ZM27 41.5H9.49997V29.8334H27V41.5Z" fill="#58AEFF"/>
</svg>
