<svg width="52" height="52" viewBox="0 0 52 52" fill="none" xmlns="http://www.w3.org/2000/svg">
<path fill-rule="evenodd" clip-rule="evenodd" d="M36.6976 31.1555C36.0271 31.8286 35.1663 32.2797 34.2312 32.4481L23.088 34.4539C22.3562 34.5863 21.6033 34.541 20.8926 34.3218C20.182 34.1026 19.5344 33.7159 19.0044 33.1942C18.4743 32.6726 18.0773 32.0312 17.8469 31.3241C17.6164 30.6171 17.5591 29.865 17.6798 29.1312L19.537 17.8396C19.6947 16.8781 20.1508 15.9905 20.8408 15.3026L36.2147 -0.000486463H9.28527C7.80759 -0.000486463 6.39043 0.586512 5.34555 1.63138C4.30067 2.67624 3.71366 4.09338 3.71366 5.57104V38.6994L0.0958279 49.5564C-0.0090548 49.8719 -0.0273394 50.2097 0.0428826 50.5346C0.113105 50.8596 0.269259 51.1597 0.495046 51.4037C0.720834 51.6477 1.00798 51.8266 1.3265 51.9218C1.64503 52.017 1.98326 52.0249 2.3059 51.9447L16.9407 48.2861H46.4294C47.907 48.2861 49.3242 47.6991 50.3691 46.6542C51.414 45.6094 52.001 44.1922 52.001 42.7146V15.7855L36.6976 31.1555ZM45.7571 0.285519C45.0751 0.0012077 44.3238 -0.0732575 43.5993 0.0716437C42.8748 0.216545 42.2099 0.574228 41.6898 1.09896L24.1206 18.5936L22.2634 29.8852L33.4066 27.8794L50.9015 10.3106C51.2497 9.96526 51.526 9.55445 51.7146 9.10182C51.9031 8.64919 52.0002 8.16371 52.0002 7.67337C52.0002 7.18303 51.9031 6.69754 51.7146 6.24491C51.526 5.79229 51.2497 5.38147 50.9015 5.03618L46.9642 1.09896C46.6198 0.749514 46.2095 0.471781 45.7571 0.281804" fill="#58AEFF"/>
</svg>
