<svg width="64" height="48" viewBox="0 0 64 48" fill="none" xmlns="http://www.w3.org/2000/svg">
<path d="M28 48C28 48 24 48 24 44C24 40 28 28 44 28C60 28 64 40 64 44C64 48 60 48 60 48H28ZM44 24C47.1826 24 50.2348 22.7357 52.4853 20.4853C54.7357 18.2348 56 15.1826 56 12C56 8.8174 54.7357 5.76516 52.4853 3.51472C50.2348 1.26428 47.1826 0 44 0C40.8174 0 37.7652 1.26428 35.5147 3.51472C33.2643 5.76516 32 8.8174 32 12C32 15.1826 33.2643 18.2348 35.5147 20.4853C37.7652 22.7357 40.8174 24 44 24ZM20.864 48C20.2713 46.7512 19.9756 45.3821 20 44C20 38.58 22.72 33 27.744 29.12C25.2367 28.3457 22.6239 27.9679 20 28C4 28 0 40 0 44C0 48 4 48 4 48H20.864ZM18 24C20.6522 24 23.1957 22.9464 25.0711 21.0711C26.9464 19.1957 28 16.6522 28 14C28 11.3478 26.9464 8.8043 25.0711 6.92893C23.1957 5.05357 20.6522 4 18 4C15.3478 4 12.8043 5.05357 10.9289 6.92893C9.05357 8.8043 8 11.3478 8 14C8 16.6522 9.05357 19.1957 10.9289 21.0711C12.8043 22.9464 15.3478 24 18 24Z" fill="#58AEFF"/>
</svg>
