<svg width="1000" height="590" viewBox="0 0 1000 590" fill="none" xmlns="http://www.w3.org/2000/svg">
<path d="M83 97.5C134.801 84.4492 184.048 63.0959 232.094 39.9627C252.66 30.2118 273.01 19.9816 294.136 11.8038C314.096 4.33075 341.909 -4.45994 354.943 15.7244C361.36 24.8184 364.09 36.3387 359.461 46.269C355.093 56.1007 346.054 63.6286 336.798 69.5804C317.827 81.4742 296.051 88.8181 274.311 94.767C230.57 106.267 185.107 112.094 140.007 112.207C114.896 112.265 88.9173 116.722 66.9396 130.488C56.2067 137.414 45.9936 147.803 43.8802 161.732C41.7218 175.683 48.8989 188.753 57.2741 198.208C93.8547 235.395 143.71 250.069 191.139 264.73C270.598 290.081 357.441 300.384 437.012 307.987C441.047 309.278 444.788 310.833 447.223 312.86C448.421 313.868 448.929 314.776 448.996 315.413C449.111 316.022 448.806 317.231 447.973 318.532C444.209 324.139 436.45 329.112 429.311 333.413C414.591 342.048 398.561 349.346 382.752 356.373C350.834 370.408 318.332 383.363 285.973 396.817C202.606 432.669 120.201 471.275 43.9578 521.836C28.9123 532.938 13.0565 542.506 2.46635 561.179C0.00804472 565.643 -0.693081 574.606 4.4639 579.4C5.52944 580.529 6.76276 581.518 8.13354 582.393C9.36815 583.174 10.4063 583.709 11.6694 584.278C12.8831 584.823 14.3061 585.352 15.5709 585.755C16.6606 586.104 17.8044 586.424 19.0051 586.719C29.0098 589.028 37.684 589.302 47.7822 589.37C123.383 570.624 185.482 528.258 253.082 502.229C338.516 475.858 423.682 462.874 512.975 465.956C554.074 465.898 595.093 465.432 635.941 465.566C676.38 466.608 719.532 463.26 751.65 489.711C809.905 510.195 866.458 483.648 917.627 461.456C942.91 448.726 968.137 433.651 986.307 410.81C995.07 399.569 1001.74 384.508 998.608 369.501C995.513 354.374 984.905 343.184 973.444 334.4C906.311 281.685 843.189 221.939 792.907 152.386C778.769 130.661 761.264 106.524 764.918 79.9969C767.71 66.3596 782.81 60.727 795.597 59.6871C809.315 58.4588 821.584 59.7975 835.5 62C821.608 59.6342 809.359 58.1243 795.551 59.1956C782.739 60.0787 767.094 65.5645 763.971 79.7638C759.935 107.14 777.403 131.413 791.339 153.458C841.092 223.913 903.624 284.327 970.681 338.001C981.655 346.534 991.229 357.172 993.774 370.438C996.397 383.534 990.508 396.981 982.12 407.57C964.803 429.027 939.926 443.806 914.997 456.072C865.451 477.93 805.278 501.824 755.765 483.777C722.187 455.79 675.923 458.823 636.005 457.594C595.023 457.228 554.057 457.484 512.975 457.351C424.59 453.667 334.738 467.066 250.713 492.959C180.462 519.966 115.85 562.155 47.7822 579.417C38.1463 579.365 29.802 579 21.3837 577.033C20.3867 576.788 19.4639 576.528 18.6156 576.255C17.6291 575.941 16.5736 575.544 15.739 575.168C14.8711 574.778 14.2075 574.428 13.5032 573.981C12.7241 573.484 12.145 572.997 11.7233 572.549C10.8719 571.639 10.5034 570.774 10.4568 569.689C10.4106 568.503 10.7634 567.05 11.5467 565.339C19.0959 551.599 35.1597 540.44 49.6637 530.049C124.46 480.414 207.088 441.492 289.704 405.784C321.983 392.282 354.45 379.248 386.581 365.008C402.524 357.858 418.659 350.482 434.06 341.387C441.659 336.591 449.566 332.301 455.777 323.385C457.156 321.183 458.601 317.835 458.078 314.165C457.553 310.375 455.229 307.636 453.111 305.866C448.69 302.322 444.361 300.832 439.75 299.315C354.236 291.041 274.054 282.13 193.307 257.129C146.394 243.077 96.622 228.049 62.4959 193.598C54.689 184.918 48.8344 173.769 50.5124 162.706C52.05 151.611 60.556 142.334 70.4508 135.876C90.6055 122.982 115.749 118.266 140.007 118.059C185.744 117.569 231.401 111.311 275.548 99.2814C297.498 93.0485 319.475 85.4593 338.991 72.9743C348.502 66.6957 358.043 58.7928 362.864 47.737C368.024 36.4836 364.608 23.2641 357.714 13.8175C342.37 -8.62973 312.977 1.80154 293.178 9.33304C271.941 17.8193 251.721 28.2731 231.266 38.2527C183.51 61.9096 134.637 83.7991 83 97.5Z" fill="#58AEFF" fill-opacity="0.9"/>
</svg>
