<svg width="66" height="62" viewBox="0 0 66 62" fill="none" xmlns="http://www.w3.org/2000/svg">
<path d="M18.1173 61.395C19.2886 61.395 20.1098 60.81 21.4861 59.52L32.0911 49.8525L51.8661 49.8812C60.5973 49.9112 65.2848 45.0475 65.2848 36.4637V14.0225C65.2848 5.43873 60.5973 0.60498 51.8673 0.60498H14.1323C5.43234 0.60498 0.714844 5.40873 0.714844 14.0225V36.4637C0.714844 45.0762 5.43109 49.8812 14.1323 49.8525H15.5098V58.3775C15.5098 60.1937 16.4761 61.395 18.1173 61.395ZM16.6223 17.0125C15.5686 17.0125 14.7473 16.1912 14.7473 15.1075C14.7473 14.1412 15.5686 13.2912 16.6223 13.2912H49.4061C50.4311 13.2912 51.2811 14.1412 51.2811 15.1075C51.2851 15.3562 51.2395 15.6033 51.1471 15.8342C51.0546 16.0652 50.9171 16.2754 50.7426 16.4527C50.5681 16.63 50.3601 16.7708 50.1306 16.8669C49.9012 16.963 49.6549 17.0125 49.4061 17.0125H16.6223ZM16.6223 27.5C16.3752 27.5033 16.1299 27.4571 15.9009 27.3641C15.6718 27.2711 15.4638 27.1331 15.289 26.9583C15.1142 26.7835 14.9763 26.5755 14.8832 26.3465C14.7902 26.1175 14.744 25.8721 14.7473 25.625C14.752 25.1319 14.952 24.6607 15.3034 24.3149C15.6549 23.969 16.1292 23.7766 16.6223 23.78H49.4061C50.4311 23.78 51.2811 24.63 51.2811 25.625C51.2811 26.68 50.4311 27.5 49.4061 27.5H16.6223ZM16.6223 38.0175C15.5686 38.0175 14.7473 37.1675 14.7473 36.1425C14.7473 35.0587 15.5686 34.2675 16.6223 34.2675H37.9511C38.9473 34.2675 39.7973 35.0587 39.7973 36.1425C39.7973 37.1675 38.9473 38.0175 37.9511 38.0175H16.6223Z" fill="#012547"/>
</svg>
