<svg width="62" height="65" viewBox="0 0 62 65" fill="none" xmlns="http://www.w3.org/2000/svg">
<path d="M58.8272 17.7861V35.2081C57.9063 35.0203 56.956 35.0299 56.039 35.2362C55.1221 35.4425 54.2593 35.8409 53.5075 36.405V33.7452C53.5075 31.9816 52.8069 30.2902 51.5599 29.0432C50.3128 27.7961 48.6215 27.0956 46.8579 27.0956C45.0943 27.0956 43.4029 27.7961 42.1559 29.0432C40.9088 30.2902 40.2083 31.9816 40.2083 33.7452V44.3846C39.2203 43.6436 38.0456 43.1924 36.8157 43.0815C35.5857 42.9706 34.3492 43.2044 33.2447 43.7567C32.1402 44.3089 31.2112 45.1579 30.562 46.2083C29.9128 47.2588 29.5689 48.4693 29.5689 49.7043V59.0137H8.95505C6.66239 59.0137 4.46362 58.103 2.84246 56.4818C1.2213 54.8607 0.310547 52.6619 0.310547 50.3692V17.7861H58.8272ZM50.1827 0.49707C52.4754 0.49707 54.6741 1.40783 56.2953 3.02899C57.9164 4.65015 58.8272 6.84891 58.8272 9.14158V13.7963H0.310547V9.14158C0.310547 6.84891 1.2213 4.65015 2.84246 3.02899C4.46362 1.40783 6.66239 0.49707 8.95505 0.49707H50.1827ZM46.8579 29.7554C45.7997 29.7554 44.7849 30.1757 44.0367 30.924C43.2885 31.6722 42.8681 32.687 42.8681 33.7452V60.3436C42.8681 61.4018 43.2885 62.4166 44.0367 63.1648C44.7849 63.9131 45.7997 64.3334 46.8579 64.3334C47.916 64.3334 48.9309 63.9131 49.6791 63.1648C50.4273 62.4166 50.8477 61.4018 50.8477 60.3436V33.7452C50.8477 32.687 50.4273 31.6722 49.6791 30.924C48.9309 30.1757 47.916 29.7554 46.8579 29.7554ZM36.2185 45.7145C35.1603 45.7145 34.1455 46.1348 33.3973 46.8831C32.6491 47.6313 32.2287 48.6461 32.2287 49.7043V60.3436C32.2287 61.4018 32.6491 62.4166 33.3973 63.1648C34.1455 63.9131 35.1603 64.3334 36.2185 64.3334C37.2766 64.3334 38.2915 63.9131 39.0397 63.1648C39.7879 62.4166 40.2083 61.4018 40.2083 60.3436V49.7043C40.2083 48.6461 39.7879 47.6313 39.0397 46.8831C38.2915 46.1348 37.2766 45.7145 36.2185 45.7145ZM53.5075 41.7247C53.5075 40.6666 53.9279 39.6517 54.6761 38.9035C55.4243 38.1553 56.4391 37.7349 57.4973 37.7349C58.5554 37.7349 59.5702 38.1553 60.3185 38.9035C61.0667 39.6517 61.4871 40.6666 61.4871 41.7247V60.3436C61.4871 61.4018 61.0667 62.4166 60.3185 63.1648C59.5702 63.9131 58.5554 64.3334 57.4973 64.3334C56.4391 64.3334 55.4243 63.9131 54.6761 63.1648C53.9279 62.4166 53.5075 61.4018 53.5075 60.3436V41.7247Z" fill="white"/>
</svg>
